<?xml version="1.0" encoding="UTF-8"?>
<!DOCTYPE svg PUBLIC "-//W3C//DTD SVG 1.1//EN" "http://www.w3.org/Graphics/SVG/1.1/DTD/svg11.dtd">
<!-- Creator: CorelDRAW 2020 (64-Bit Evaluation Version) -->
<svg xmlns="http://www.w3.org/2000/svg" xml:space="preserve" width="177.89mm" height="20.8379mm" version="1.1" style="shape-rendering:geometricPrecision; text-rendering:geometricPrecision; image-rendering:optimizeQuality; fill-rule:evenodd; clip-rule:evenodd"
viewBox="0 0 17405.64 2038.88"
 xmlns:xlink="http://www.w3.org/1999/xlink"
 xmlns:xodm="http://www.corel.com/coreldraw/odm/2003">
 <defs>
  <style type="text/css">
   <![CDATA[
    .fil0 {fill:black;fill-rule:nonzero}
    .fil1 {fill:#4D4D4D;fill-rule:nonzero}
   ]]>
  </style>
 </defs>
 <g id="Layer_x0020_1">
  <metadata id="CorelCorpID_0Corel-Layer"/>
  <g id="_2669309330464">
   <path class="fil0" d="M1106.78 1955.83c-94.34,54.62 -230.66,81.7 -408.5,81.7 -208.09,0 -376.45,-62.75 -505.09,-189.13 -128.64,-125.94 -193.18,-288.43 -193.18,-487.94 0,-230.2 69.06,-411.2 206.73,-543.91 138.13,-132.71 322.74,-199.06 553.85,-199.06 159.33,0 274.89,21.21 346.2,63.19l0 354.79c-87.12,-65.45 -184.61,-97.94 -292.05,-97.94 -120.07,0 -214.85,34.75 -285.27,105.16 -69.97,69.97 -105.17,166.56 -105.17,290.24 0,119.62 33.85,213.96 100.66,282.12 66.8,68.61 159.33,102.46 276.24,102.46 104.27,0 205.84,-32.5 305.59,-97.95l0 336.28zm919.01 81.7c-225.69,0 -403.08,-63.2 -532.17,-189.58 -129.1,-126.39 -193.64,-298.36 -193.64,-515.03 0,-223.88 66.8,-399.47 200.87,-525.86 134.06,-126.39 315.51,-189.57 543.46,-189.57 224.79,0 401.27,63.19 529.02,189.57 127.74,126.39 191.83,293.85 191.83,501.93 0,224.79 -65.9,402.63 -197.71,533.08 -131.81,130.46 -312.35,195.45 -541.66,195.45zm10.84 -1100.01c-98.85,0 -175.59,33.84 -230.21,101.55 -54.62,68.16 -82.15,164.3 -82.15,288.44 0,259.99 105.17,389.99 315.06,389.99 199.97,0 300.17,-133.61 300.17,-400.37 0,-253.22 -101.1,-379.61 -302.87,-379.61zm2324.6 1067.06l-417.97 0 0 -186.42 -4.96 0c-95.24,146.25 -235.17,219.38 -419.33,219.38 -169.27,0 -305.59,-59.59 -408.5,-179.2 -103.36,-119.17 -154.82,-286.18 -154.82,-500.57 0,-223.89 56.88,-403.08 170.62,-538.05 113.74,-134.96 262.7,-202.22 446.87,-202.22 174.68,0 296.1,62.29 365.17,187.77l4.96 0 0 -805.26 417.97 0 0 2004.58zm-409.85 -658.56l0 -102.01c0,-88.01 -25.72,-161.14 -76.73,-219.37 -51.01,-58.23 -117.81,-87.11 -199.51,-87.11 -92.54,0 -165.21,36.1 -217.12,108.77 -51.91,73.13 -78.09,172.88 -78.09,299.72 0,119.17 25.28,210.8 75.38,274.9 50.56,64.55 120.07,96.59 208.99,96.59 84.86,0 153.92,-33.85 207.19,-101.56 53.27,-68.16 79.89,-157.98 79.89,-269.92zm1978.4 100.66l-883.35 0c13.99,196.35 138.13,294.75 371.49,294.75 148.95,0 279.86,-35.2 392.7,-105.62l0 301.52c-125.04,66.81 -287.53,100.21 -487.94,100.21 -218.47,0 -388.19,-60.49 -509.16,-181.91 -120.52,-120.97 -181,-290.24 -181,-506.89 0,-224.79 65,-403.08 195.9,-534.44 130.45,-131.35 290.69,-196.8 481.17,-196.8 197.26,0 350.27,58.68 458.15,175.58 107.88,117.36 162.05,276.7 162.05,477.56l0 176.04zm-387.29 -256.84c0,-193.63 -78.54,-290.69 -235.62,-290.69 -66.8,0 -125.03,27.53 -173.78,83.06 -49.2,55.52 -78.54,125.03 -89.37,207.63l498.77 0zm3330.74 -539.39l-390 1354.13 -439.19 0 -199.52 -793.52c-13.08,-52.82 -20.76,-110.59 -22.56,-173.33l-7.67 0c-6.32,69.06 -14.9,125.04 -26.63,167.91l-214.41 798.94 -433.33 0 -382.32 -1354.13 425.65 0 186.41 883.34c9.03,41.53 15.8,91.63 19.86,150.76l8.13 0c4.51,-61.84 12.18,-113.74 23.92,-156.17l232.46 -877.93 398.11 0 208.99 883.34c5.42,22.12 11.29,73.13 18.51,153.47l9.48 0c4.06,-51.01 11.28,-102.46 20.76,-153.47l176.03 -883.34 387.29 0zm400.82 -214.41c-70.42,0 -128.2,-20.76 -173.33,-62.75 -44.69,-41.98 -67.26,-92.98 -67.26,-153.92 0,-62.74 22.57,-113.74 67.26,-153.47 45.14,-39.72 102.91,-59.58 173.33,-59.58 71.32,0 129.55,19.86 173.78,59.58 44.69,39.72 66.8,90.73 66.8,153.47 0,63.2 -22.11,115.55 -66.8,156.18 -44.24,40.18 -102.46,60.49 -173.78,60.49zm202.22 1109.49c0,57.32 13.54,100.65 41.08,130.45 27.08,29.33 64.1,44.24 109.68,44.24 23.02,0 46.05,-2.26 68.61,-6.77 23.02,-4.06 46.05,-8.58 69.06,-13.09l0 293.85c-50.55,13.09 -103.36,23.92 -159.33,32.04 -55.98,8.58 -114.65,12.64 -175.14,12.64 -55.52,0 -106.07,-9.03 -151.66,-27.53 -45.14,-18.5 -83.96,-45.14 -116.45,-80.35 -32.04,-34.75 -56.88,-76.73 -74.48,-125.93 -17.6,-49.66 -26.63,-105.17 -26.63,-167.01l0 -987.62 415.27 0 0 895.08zm1282.81 443.25c-61.84,32.5 -154.82,48.76 -278.96,48.76 -294.3,0 -441.9,-153.02 -441.9,-458.61l0 -620.19 -219.37 0 0 -308.29 219.37 0 0 -292.05 416.62 -119.17 0 411.21 304.23 0 0 308.29 -304.23 0 0 547.52c0,140.83 55.97,211.25 167.91,211.25 44.24,0 89.83,-12.64 136.32,-38.36l0 309.64zm1535.6 15.8l-416.62 0 0 -769.6c0,-198.61 -72.22,-297.46 -217.11,-297.46 -74.03,0 -134.07,27.53 -179.65,83.05 -46.04,55.52 -69.06,126.39 -69.06,211.7l0 772.31 -417.52 0 0 -2004.58 417.52 0 0 851.3 5.41 0c102.46,-155.72 241.04,-233.81 416.62,-233.81 306.94,0 460.41,185.06 460.41,555.19l0 831.9zm2371.99 0l-416.62 0 0 -752.45c0,-209.9 -74.93,-314.61 -224.78,-314.61 -72.23,0 -131.81,27.53 -178.3,83.05 -46.94,55.52 -70.41,126.39 -70.41,211.7l0 772.31 -417.52 0 0 -1354.13 417.52 0 0 214.4 5.41 0c99.76,-165.2 244.65,-247.35 435.14,-247.35 299.72,0 449.57,185.96 449.57,557.9l0 829.19zm1457.51 0l-395.4 0 0 -194.54 -5.42 0c-90.72,151.66 -225.24,227.5 -403.53,227.5 -131.36,0 -234.72,-37.01 -310.1,-111.49 -75.38,-74.48 -112.84,-174.23 -112.84,-298.36 0,-262.7 155.73,-414.37 466.73,-455l367.87 -48.75c0,-148.05 -80.34,-222.08 -241.03,-222.08 -161.14,0 -314.61,47.85 -459.96,143.99l0 -314.61c58.23,-30.24 137.68,-56.42 238.78,-79.44 100.66,-23.02 192.74,-34.3 275.8,-34.3 385.93,0 579.11,192.73 579.11,577.76l0 809.32zm-392.7 -550.23l0 -91.18 -246 31.59c-135.86,17.61 -203.57,79 -203.57,184.16 0,47.4 16.25,86.67 49.2,116.91 33.4,30.23 78.09,45.59 134.52,45.59 78.54,0 142.18,-27.08 191.83,-81.25 49.2,-54.17 74.02,-122.78 74.02,-205.83zm634.65 514.58l0 -338.54c69.06,41.54 137.67,72.23 205.83,92.54 68.16,20.3 132.71,30.23 193.63,30.23 74.03,0 132.71,-9.93 175.14,-30.23 42.88,-20.31 64.1,-51.01 64.1,-92.54 0,-26.62 -9.48,-48.75 -28.89,-66.35 -19.41,-17.6 -44.24,-32.95 -74.93,-46.04 -30.24,-13.09 -63.65,-25.28 -99.75,-35.66 -36.11,-10.83 -70.87,-22.57 -104.27,-35.65 -53.71,-20.31 -101.1,-42.44 -142.18,-65.46 -41.08,-23.46 -75.38,-50.55 -103.37,-81.69 -27.53,-30.69 -48.75,-66.36 -63.19,-106.98 -14.44,-40.63 -22.11,-88.47 -22.11,-143.99 0,-75.83 16.69,-141.28 49.65,-195.9 32.95,-54.62 77.19,-99.3 132.26,-134.07 55.07,-34.75 118.26,-60.48 189.12,-76.73 70.87,-16.25 144.9,-24.37 221.63,-24.37 60.04,0 120.52,4.51 182.35,13.99 61.85,9.03 122.78,22.57 182.81,40.18l0 322.73c-53.27,-31.14 -109.68,-54.17 -170.17,-69.51 -60.49,-15.35 -119.62,-23.02 -177.84,-23.02 -27.53,0 -53.27,2.26 -77.19,7.22 -24.37,4.52 -46.04,11.74 -64.54,21.21 -18.51,9.03 -32.95,20.77 -43.34,35.66 -10.83,14.44 -15.8,31.14 -15.8,49.65 0,24.38 7.67,45.6 23.47,63.2 16.25,17.6 36.56,32.95 62.29,45.59 25.73,13.09 54.17,24.37 85.31,34.3 31.14,10.38 62.3,20.76 93.44,31.14 55.52,19.41 105.62,40.63 150.76,63.65 44.69,23.02 83.5,49.66 115.55,80.8 32.04,30.69 56.87,66.8 74.02,108.32 17.15,41.54 25.73,90.73 25.73,148.06 0,80.34 -17.15,148.95 -52.36,205.83 -34.76,56.88 -80.8,102.91 -138.58,138.58 -57.78,35.65 -124.58,61.84 -199.97,78.09 -75.38,16.24 -153.47,24.37 -234.71,24.37 -148.96,0 -286.63,-23.02 -413.91,-68.61z"/>
   <path class="fil1" d="M6364.9 1069.77c-69.06,0 -126.39,-21.21 -171.97,-62.74 -46.05,-41.98 -68.61,-93.89 -68.61,-155.73 0,-63.19 23.47,-115.55 70.41,-155.72 47.4,-40.63 106.07,-60.94 176.49,-60.94 71.77,0 130,20.31 175.58,61.39 45.15,41.08 67.71,92.98 67.71,155.27 0,64.55 -23.02,116.91 -69.06,157.53 -46.5,40.63 -106.52,60.94 -180.55,60.94zm0 967.76c-69.06,0 -126.39,-21.22 -171.97,-63.2 -46.05,-42.43 -68.61,-94.33 -68.61,-156.18 0,-63.64 23.47,-115.54 70.41,-156.17 47.4,-40.63 106.07,-60.94 176.49,-60.94 71.77,0 130,20.76 175.58,61.84 45.15,40.63 67.71,92.53 67.71,155.27 0,64.1 -23.02,116.91 -69.06,157.99 -46.5,41.08 -106.52,61.39 -180.55,61.39zm6446.59 -967.76c-69.06,0 -126.39,-21.21 -171.97,-62.74 -46.05,-41.98 -68.61,-93.89 -68.61,-155.73 0,-63.19 23.47,-115.55 70.41,-155.72 47.4,-40.63 106.07,-60.94 176.49,-60.94 71.77,0 130,20.31 175.58,61.39 45.15,41.08 67.71,92.98 67.71,155.27 0,64.55 -23.02,116.91 -69.06,157.53 -46.5,40.63 -106.52,60.94 -180.55,60.94zm0 967.76c-69.06,0 -126.39,-21.22 -171.97,-63.2 -46.05,-42.43 -68.61,-94.33 -68.61,-156.18 0,-63.64 23.47,-115.54 70.41,-156.17 47.4,-40.63 106.07,-60.94 176.49,-60.94 71.77,0 130,20.76 175.58,61.84 45.15,40.63 67.71,92.53 67.71,155.27 0,64.1 -23.02,116.91 -69.06,157.99 -46.5,41.08 -106.52,61.39 -180.55,61.39z"/>
  </g>
 </g>
</svg>
